<svg xmlns="http://www.w3.org/2000/svg" viewBox="0 0 1270.31 208.40" role="img" aria-label="The Blacklist">
  <title>The Blacklist</title>
  <g transform="translate(0, 167.58) scale(0.097656)">
    <g transform="scale(1,-1)">
      <path d="M0 2112H992V1788H656V1160Q656 1079 544 1028L536 1016V1008Q541 997 608 956Q656 915 656 872V0H336V852Q336 949 216 1000V1016Q220 1026 300 1076Q336 1114 336 1172V1788H0Z" transform="translate(0.00, 0)"/>
      <path d="M0 2112H320V1216H704V2112H1024V1152Q1024 1067 908 1012Q908 1004 900 1004Q907 984 988 936Q1024 888 1024 864V0H704V852L700 892H316L320 884V0H0V852Q0 934 -104 976L-116 992V1008Q0 1075 0 1160Z" transform="translate(1092.00, 0)"/>
      <path d="M0 2112H912V1792H324V1216H752V1144Q752 1077 640 1020L636 1000Q731 935 744 896H320L324 848V320H912V0H0V872Q0 937 -112 988L-116 1008Q0 1088 0 1140Z" transform="translate(2216.00, 0)"/>
      <path d="M0 2112H484Q700 2112 872 1972Q1032 1807 1032 1560V1504Q1032 1268 864 1136Q821 1109 804 1108Q844 1081 844 1060V1056Q844 1038 828 1020Q828 991 952 940Q1044 879 1044 808Q1076 699 1076 592L1072 568V552Q1072 227 820 64Q696 0 604 0H0V856Q0 924 -104 972Q-120 983 -120 992Q-114 1009 -44 1056Q0 1097 0 1164ZM344 1788V1252H492Q658 1252 688 1464Q692 1464 692 1508V1540Q692 1742 520 1784Q494 1788 468 1788ZM312 944Q344 905 344 872V316H488Q644 316 708 504Q720 552 720 592V652Q720 874 564 924Q507 944 428 944Z" transform="translate(3736.00, 0)"/>
      <path d="M8 2112H320V1148Q320 1085 204 1024L200 1016V1008Q200 1003 284 948Q320 910 320 876V316H872V0H0V868Q0 935 -108 988Q-116 998 -116 1004Q-116 1014 -32 1076Q0 1116 0 1160V2104Q1 2112 8 2112Z" transform="translate(4912.00, 0)"/>
      <path d="M792 2112Q802 2112 832 1900Q960 1166 960 1124Q960 1074 872 1020L868 1000Q1008 916 1008 848Q1012 843 1152 0H816L740 484H416Q405 484 380 280L332 0H0L148 876H144Q144 880 148 880Q148 933 56 984V1004Q141 1063 180 1108Q200 1142 272 1612Q276 1624 360 2112ZM576 1612Q512 1150 504 1128Q485 1091 444 1064Q368 1024 368 1004Q472 944 472 876L460 796H692Q692 942 560 992L544 1008V1020Q640 1086 640 1124Q640 1136 644 1152Q580 1585 580 1612Z" transform="translate(5884.00, 0)"/>
      <path d="M504 2138Q803 2138 960 1854Q1012 1761 1012 1606V1390H680V1622Q680 1758 564 1806Q545 1818 504 1818H484Q369 1818 320 1678Q316 1657 316 1638V1166Q316 1082 204 1030L196 1018V1010Q207 997 284 946Q316 908 316 862V474Q316 360 448 306Q470 302 484 302H508Q609 302 664 410Q680 443 680 486V774H1012V502Q1012 294 904 166Q743 -26 508 -26H504Q205 -26 48 262Q0 352 0 498V862Q0 932 -108 978Q-108 984 -120 990Q-120 1004 -32 1074Q0 1108 0 1166V1610Q0 1984 364 2118Q431 2134 504 2138Z" transform="translate(7086.00, 0)"/>
      <path d="M0 2112H320V1368H324L704 2112H1044Q1044 2103 612 1252Q656 1143 656 1128V1112Q656 1072 584 1020Q586 1002 696 948Q758 906 780 836Q1120 9 1120 0H744L416 852Q383 811 320 664V0H0V860Q0 912 -84 964Q-98 964 -120 988V996L-32 1072Q0 1102 0 1188Z" transform="translate(8198.00, 0)"/>
      <path d="M8 2112H320V1148Q320 1085 204 1024L200 1016V1008Q200 1003 284 948Q320 910 320 876V316H872V0H0V868Q0 935 -108 988Q-116 998 -116 1004Q-116 1014 -32 1076Q0 1116 0 1160V2104Q1 2112 8 2112Z" transform="translate(9368.00, 0)"/>
      <path d="M0 2112H320V1152Q320 1082 208 1028L200 1016V1000Q320 944 320 860V0H0V856Q0 945 -120 1000V1024Q0 1079 0 1168Z" transform="translate(10340.00, 0)"/>
      <path d="M496 2138H560Q794 2138 940 1946Q1009 1868 1040 1666V1598H732Q700 1850 552 1850H524Q390 1850 364 1642V1618Q364 1392 684 1146Q728 1101 728 1078V1070Q712 1026 712 1022V1018Q715 1002 852 938Q955 883 1012 714Q1056 615 1056 510Q1056 229 852 62Q725 -26 544 -26Q185 -26 48 330Q3 476 0 598H304Q333 404 388 350Q443 270 528 270Q660 270 720 418Q732 460 732 514Q732 711 440 922Q393 949 240 1010Q240 1016 228 1022Q252 1069 252 1078V1094Q248 1127 132 1266Q36 1431 36 1590V1642Q36 1952 308 2098Q409 2138 496 2138Z" transform="translate(10760.00, 0)"/>
      <path d="M0 2112H992V1788H656V1160Q656 1079 544 1028L536 1016V1008Q541 997 608 956Q656 915 656 872V0H336V852Q336 949 216 1000V1016Q220 1026 300 1076Q336 1114 336 1172V1788H0Z" transform="translate(11916.00, 0)"/>
    </g>
  </g>
</svg>